<?xml version="1.0" encoding="UTF-8" standalone="no"?>
<!DOCTYPE svg PUBLIC "-//W3C//DTD SVG 1.1//EN"
 "http://www.w3.org/Graphics/SVG/1.1/DTD/svg11.dtd">
<!-- Generated by graphviz version 15.1.0 (20260618.0150)
 -->
<!-- Title: TraceLink_Module_03 Pages: 1 -->
<svg width="631pt" height="1750pt"
 viewBox="0.00 0.00 631.00 1750.00" xmlns="http://www.w3.org/2000/svg" xmlns:xlink="http://www.w3.org/1999/xlink">
<g id="graph0" class="graph" transform="scale(1 1) rotate(0) translate(25.2 1724.9)">
<title>TraceLink_Module_03</title>
<polygon fill="white" stroke="none" points="-25.2,25.2 -25.2,-1724.9 605.95,-1724.9 605.95,25.2 -25.2,25.2"/>
<text xml:space="preserve" text-anchor="middle" x="290.38" y="-1674.8" font-family="Arial Bold" font-size="22.00">3. URL BATCH UPLOAD AND PREPARATION MODULE</text>
<!-- start -->
<g id="node1" class="node">
<title>start</title>
<ellipse fill="#b7efb0" stroke="#16833c" stroke-width="1.2" cx="309.78" cy="-1636.92" rx="85.68" ry="29.27"/>
<text xml:space="preserve" text-anchor="middle" x="309.78" y="-1639.97" font-family="Arial" font-size="11.00">START</text>
<text xml:space="preserve" text-anchor="middle" x="309.78" y="-1626.47" font-family="Arial" font-size="11.00">Prepare URL Batch</text>
</g>
<!-- select_context -->
<g id="node2" class="node">
<title>select_context</title>
<polygon fill="#cfe5ff" stroke="#1f5f99" stroke-width="1.2" points="369.99,-1560.65 249.57,-1560.65 249.57,-1519.25 369.99,-1519.25 369.99,-1560.65"/>
<text xml:space="preserve" text-anchor="middle" x="309.78" y="-1543" font-family="Arial" font-size="11.00">Select Personal or</text>
<text xml:space="preserve" text-anchor="middle" x="309.78" y="-1529.5" font-family="Arial" font-size="11.00">Workspace Context</text>
</g>
<!-- start&#45;&gt;select_context -->
<g id="edge1" class="edge">
<title>start&#45;&gt;select_context</title>
<path fill="none" stroke="#333333" d="M309.78,-1607.3C309.78,-1607.3 309.78,-1569.6 309.78,-1569.6"/>
<polygon fill="#333333" stroke="#333333" points="312.23,-1569.6 309.78,-1562.6 307.33,-1569.6 312.23,-1569.6"/>
</g>
<!-- upload_file -->
<g id="node3" class="node">
<title>upload_file</title>
<polygon fill="#cfe5ff" stroke="#1f5f99" stroke-width="1.2" points="381.99,-1472.25 237.57,-1472.25 237.57,-1436.25 381.99,-1436.25 381.99,-1472.25"/>
<text xml:space="preserve" text-anchor="middle" x="309.78" y="-1450.55" font-family="Arial" font-size="11.00">Upload CSV / XLSX File</text>
</g>
<!-- select_context&#45;&gt;upload_file -->
<g id="edge2" class="edge">
<title>select_context&#45;&gt;upload_file</title>
<path fill="none" stroke="#333333" d="M309.78,-1518.76C309.78,-1518.76 309.78,-1481.09 309.78,-1481.09"/>
<polygon fill="#333333" stroke="#333333" points="312.23,-1481.09 309.78,-1474.09 307.33,-1481.09 312.23,-1481.09"/>
</g>
<!-- validate_file -->
<g id="node4" class="node">
<title>validate_file</title>
<polygon fill="#cfe5ff" stroke="#1f5f99" stroke-width="1.2" points="307.11,-1389.25 196.44,-1389.25 196.44,-1347.85 307.11,-1347.85 307.11,-1389.25"/>
<text xml:space="preserve" text-anchor="middle" x="251.78" y="-1371.6" font-family="Arial" font-size="11.00">Validate File Type</text>
<text xml:space="preserve" text-anchor="middle" x="251.78" y="-1358.1" font-family="Arial" font-size="11.00">and File Size</text>
</g>
<!-- upload_file&#45;&gt;validate_file -->
<g id="edge3" class="edge">
<title>upload_file&#45;&gt;validate_file</title>
<path fill="none" stroke="#333333" d="M272.34,-1435.65C272.34,-1435.65 272.34,-1398.34 272.34,-1398.34"/>
<polygon fill="#333333" stroke="#333333" points="274.79,-1398.34 272.34,-1391.34 269.89,-1398.34 274.79,-1398.34"/>
</g>
<!-- file_valid -->
<g id="node5" class="node">
<title>file_valid</title>
<polygon fill="#ffe69a" stroke="#c58b00" stroke-width="1.2" points="218.78,-1300.85 99.11,-1259.45 218.78,-1218.05 338.45,-1259.45 218.78,-1300.85"/>
<text xml:space="preserve" text-anchor="middle" x="218.78" y="-1262.5" font-family="Arial" font-size="11.00">Is the file supported</text>
<text xml:space="preserve" text-anchor="middle" x="218.78" y="-1249" font-family="Arial" font-size="11.00">and readable?</text>
</g>
<!-- validate_file&#45;&gt;file_valid -->
<g id="edge4" class="edge">
<title>validate_file&#45;&gt;file_valid</title>
<path fill="none" stroke="#333333" d="M251.78,-1347.25C251.78,-1347.25 251.78,-1298.28 251.78,-1298.28"/>
<polygon fill="#333333" stroke="#333333" points="254.23,-1298.28 251.78,-1291.28 249.33,-1298.28 254.23,-1298.28"/>
</g>
<!-- upload_error -->
<g id="node6" class="node">
<title>upload_error</title>
<polygon fill="#ffb8b8" stroke="#cc3333" stroke-width="1.2" points="453.99,-1171.05 327.57,-1171.05 327.57,-1129.65 453.99,-1129.65 453.99,-1171.05"/>
<text xml:space="preserve" text-anchor="middle" x="390.78" y="-1153.4" font-family="Arial" font-size="11.00">Reject File and</text>
<text xml:space="preserve" text-anchor="middle" x="390.78" y="-1139.9" font-family="Arial" font-size="11.00">Display Upload Error</text>
</g>
<!-- file_valid&#45;&gt;upload_error -->
<g id="edge5" class="edge">
<title>file_valid&#45;&gt;upload_error</title>
<path fill="none" stroke="#333333" d="M333.01,-1257.17C333.01,-1257.17 333.01,-1180.01 333.01,-1180.01"/>
<polygon fill="#333333" stroke="#333333" points="335.46,-1180.01 333.01,-1173.01 330.56,-1180.01 335.46,-1180.01"/>
<text xml:space="preserve" text-anchor="middle" x="339.38" y="-1209.09" font-family="Arial" font-size="10.00">No</text>
</g>
<!-- parse_file -->
<g id="node7" class="node">
<title>parse_file</title>
<polygon fill="#cfe5ff" stroke="#1f5f99" stroke-width="1.2" points="279.36,-1168.35 158.19,-1168.35 158.19,-1132.35 279.36,-1132.35 279.36,-1168.35"/>
<text xml:space="preserve" text-anchor="middle" x="218.78" y="-1146.65" font-family="Arial" font-size="11.00">Parse File Contents</text>
</g>
<!-- file_valid&#45;&gt;parse_file -->
<g id="edge7" class="edge">
<title>file_valid&#45;&gt;parse_file</title>
<path fill="none" stroke="#333333" d="M218.78,-1217.58C218.78,-1217.58 218.78,-1177.4 218.78,-1177.4"/>
<polygon fill="#333333" stroke="#333333" points="221.23,-1177.4 218.78,-1170.4 216.33,-1177.4 221.23,-1177.4"/>
<text xml:space="preserve" text-anchor="middle" x="210.53" y="-1199.99" font-family="Arial" font-size="10.00">Yes</text>
</g>
<!-- upload_error&#45;&gt;upload_file -->
<g id="edge6" class="edge">
<title>upload_error&#45;&gt;upload_file</title>
<path fill="none" stroke="#333333" d="M360.22,-1171.24C360.22,-1171.24 360.22,-1427.44 360.22,-1427.44"/>
<polygon fill="#333333" stroke="#333333" points="357.77,-1427.44 360.22,-1434.44 362.67,-1427.44 357.77,-1427.44"/>
</g>
<!-- extract_urls -->
<g id="node8" class="node">
<title>extract_urls</title>
<polygon fill="#cfe5ff" stroke="#1f5f99" stroke-width="1.2" points="279.74,-1082.65 157.82,-1082.65 157.82,-1046.65 279.74,-1046.65 279.74,-1082.65"/>
<text xml:space="preserve" text-anchor="middle" x="218.78" y="-1060.95" font-family="Arial" font-size="11.00">Extract URL Entries</text>
</g>
<!-- parse_file&#45;&gt;extract_urls -->
<g id="edge8" class="edge">
<title>parse_file&#45;&gt;extract_urls</title>
<path fill="none" stroke="#333333" d="M218.78,-1131.75C218.78,-1131.75 218.78,-1091.72 218.78,-1091.72"/>
<polygon fill="#333333" stroke="#333333" points="221.23,-1091.72 218.78,-1084.72 216.33,-1091.72 221.23,-1091.72"/>
</g>
<!-- normalize_urls -->
<g id="node9" class="node">
<title>normalize_urls</title>
<polygon fill="#cfe5ff" stroke="#1f5f99" stroke-width="1.2" points="271.49,-999.65 166.07,-999.65 166.07,-963.65 271.49,-963.65 271.49,-999.65"/>
<text xml:space="preserve" text-anchor="middle" x="218.78" y="-977.95" font-family="Arial" font-size="11.00">Normalize URLs</text>
</g>
<!-- extract_urls&#45;&gt;normalize_urls -->
<g id="edge9" class="edge">
<title>extract_urls&#45;&gt;normalize_urls</title>
<path fill="none" stroke="#333333" d="M218.78,-1046.23C218.78,-1046.23 218.78,-1008.53 218.78,-1008.53"/>
<polygon fill="#333333" stroke="#333333" points="221.23,-1008.53 218.78,-1001.53 216.33,-1008.53 221.23,-1008.53"/>
</g>
<!-- validate_urls -->
<g id="node10" class="node">
<title>validate_urls</title>
<polygon fill="#cfe5ff" stroke="#1f5f99" stroke-width="1.2" points="288.74,-916.65 148.82,-916.65 148.82,-875.25 288.74,-875.25 288.74,-916.65"/>
<text xml:space="preserve" text-anchor="middle" x="218.78" y="-899" font-family="Arial" font-size="11.00">Validate URL Format</text>
<text xml:space="preserve" text-anchor="middle" x="218.78" y="-885.5" font-family="Arial" font-size="11.00">and Supported Protocol</text>
</g>
<!-- normalize_urls&#45;&gt;validate_urls -->
<g id="edge10" class="edge">
<title>normalize_urls&#45;&gt;validate_urls</title>
<path fill="none" stroke="#333333" d="M218.78,-963.05C218.78,-963.05 218.78,-925.74 218.78,-925.74"/>
<polygon fill="#333333" stroke="#333333" points="221.23,-925.74 218.78,-918.74 216.33,-925.74 221.23,-925.74"/>
</g>
<!-- identify_invalid -->
<g id="node11" class="node">
<title>identify_invalid</title>
<polygon fill="#cfe5ff" stroke="#1f5f99" stroke-width="1.2" points="265.86,-828.25 171.69,-828.25 171.69,-786.85 265.86,-786.85 265.86,-828.25"/>
<text xml:space="preserve" text-anchor="middle" x="218.78" y="-810.6" font-family="Arial" font-size="11.00">Identify Invalid</text>
<text xml:space="preserve" text-anchor="middle" x="218.78" y="-797.1" font-family="Arial" font-size="11.00">URL Entries</text>
</g>
<!-- validate_urls&#45;&gt;identify_invalid -->
<g id="edge11" class="edge">
<title>validate_urls&#45;&gt;identify_invalid</title>
<path fill="none" stroke="#333333" d="M218.78,-875C218.78,-875 218.78,-837.17 218.78,-837.17"/>
<polygon fill="#333333" stroke="#333333" points="221.23,-837.17 218.78,-830.17 216.33,-837.17 221.23,-837.17"/>
</g>
<!-- identify_duplicates -->
<g id="node12" class="node">
<title>identify_duplicates</title>
<polygon fill="#cfe5ff" stroke="#1f5f99" stroke-width="1.2" points="274.49,-739.85 163.07,-739.85 163.07,-698.45 274.49,-698.45 274.49,-739.85"/>
<text xml:space="preserve" text-anchor="middle" x="218.78" y="-722.2" font-family="Arial" font-size="11.00">Detect Duplicate</text>
<text xml:space="preserve" text-anchor="middle" x="218.78" y="-708.7" font-family="Arial" font-size="11.00">Normalized URLs</text>
</g>
<!-- identify_invalid&#45;&gt;identify_duplicates -->
<g id="edge12" class="edge">
<title>identify_invalid&#45;&gt;identify_duplicates</title>
<path fill="none" stroke="#333333" d="M218.78,-786.6C218.78,-786.6 218.78,-748.77 218.78,-748.77"/>
<polygon fill="#333333" stroke="#333333" points="221.23,-748.77 218.78,-741.77 216.33,-748.77 221.23,-748.77"/>
</g>
<!-- preserve_traceability -->
<g id="node13" class="node">
<title>preserve_traceability</title>
<polygon fill="#cfe5ff" stroke="#1f5f99" stroke-width="1.2" points="287.99,-651.45 149.57,-651.45 149.57,-610.05 287.99,-610.05 287.99,-651.45"/>
<text xml:space="preserve" text-anchor="middle" x="218.78" y="-633.8" font-family="Arial" font-size="11.00">Preserve Source Row /</text>
<text xml:space="preserve" text-anchor="middle" x="218.78" y="-620.3" font-family="Arial" font-size="11.00">Traceability Information</text>
</g>
<!-- identify_duplicates&#45;&gt;preserve_traceability -->
<g id="edge13" class="edge">
<title>identify_duplicates&#45;&gt;preserve_traceability</title>
<path fill="none" stroke="#333333" d="M218.78,-698.2C218.78,-698.2 218.78,-660.37 218.78,-660.37"/>
<polygon fill="#333333" stroke="#333333" points="221.23,-660.37 218.78,-653.37 216.33,-660.37 221.23,-660.37"/>
</g>
<!-- generate_summary -->
<g id="node14" class="node">
<title>generate_summary</title>
<polygon fill="#cfe5ff" stroke="#1f5f99" stroke-width="1.2" points="284.61,-563.05 152.94,-563.05 152.94,-521.65 284.61,-521.65 284.61,-563.05"/>
<text xml:space="preserve" text-anchor="middle" x="218.78" y="-545.4" font-family="Arial" font-size="11.00">Generate Batch</text>
<text xml:space="preserve" text-anchor="middle" x="218.78" y="-531.9" font-family="Arial" font-size="11.00">Preparation Summary</text>
</g>
<!-- preserve_traceability&#45;&gt;generate_summary -->
<g id="edge14" class="edge">
<title>preserve_traceability&#45;&gt;generate_summary</title>
<path fill="none" stroke="#333333" d="M218.78,-609.8C218.78,-609.8 218.78,-571.97 218.78,-571.97"/>
<polygon fill="#333333" stroke="#333333" points="221.23,-571.97 218.78,-564.97 216.33,-571.97 221.23,-571.97"/>
</g>
<!-- summary_details -->
<g id="node15" class="node">
<title>summary_details</title>
<polygon fill="#eaf3ff" stroke="#1f5f99" stroke-width="1.2" points="294.36,-474.65 143.19,-474.65 143.19,-379.75 294.36,-379.75 294.36,-474.65"/>
<text xml:space="preserve" text-anchor="middle" x="218.78" y="-457" font-family="Arial" font-size="11.00">Prepared Batch Summary</text>
<text xml:space="preserve" text-anchor="middle" x="218.78" y="-430.5" font-family="Arial" font-size="11.00">• Valid URLs</text>
<text xml:space="preserve" text-anchor="middle" x="218.78" y="-417" font-family="Arial" font-size="11.00">• Invalid URLs</text>
<text xml:space="preserve" text-anchor="middle" x="218.78" y="-403.5" font-family="Arial" font-size="11.00">• Duplicate URLs</text>
<text xml:space="preserve" text-anchor="middle" x="218.78" y="-390" font-family="Arial" font-size="11.00">• Total Processable URLs</text>
</g>
<!-- generate_summary&#45;&gt;summary_details -->
<g id="edge15" class="edge">
<title>generate_summary&#45;&gt;summary_details</title>
<path fill="none" stroke="#333333" d="M218.78,-521.23C218.78,-521.23 218.78,-483.44 218.78,-483.44"/>
<polygon fill="#333333" stroke="#333333" points="221.23,-483.44 218.78,-476.44 216.33,-483.44 221.23,-483.44"/>
</g>
<!-- confirm_batch -->
<g id="node16" class="node">
<title>confirm_batch</title>
<polygon fill="#ffe69a" stroke="#c58b00" stroke-width="1.2" points="322.78,-332.75 176.86,-304.85 322.78,-276.95 468.7,-304.85 322.78,-332.75"/>
<text xml:space="preserve" text-anchor="middle" x="322.78" y="-301.15" font-family="Arial" font-size="11.00">Confirm prepared batch?</text>
</g>
<!-- summary_details&#45;&gt;confirm_batch -->
<g id="edge16" class="edge">
<title>summary_details&#45;&gt;confirm_batch</title>
<path fill="none" stroke="#333333" d="M235.61,-379.19C235.61,-379.19 235.61,-325.19 235.61,-325.19"/>
<polygon fill="#333333" stroke="#333333" points="238.06,-325.19 235.61,-318.19 233.16,-325.19 238.06,-325.19"/>
</g>
<!-- return_review -->
<g id="node17" class="node">
<title>return_review</title>
<polygon fill="#cfe5ff" stroke="#1f5f99" stroke-width="1.2" points="198.11,-229.95 105.44,-229.95 105.44,-188.55 198.11,-188.55 198.11,-229.95"/>
<text xml:space="preserve" text-anchor="middle" x="151.78" y="-212.3" font-family="Arial" font-size="11.00">Return to</text>
<text xml:space="preserve" text-anchor="middle" x="151.78" y="-198.8" font-family="Arial" font-size="11.00">Batch Review</text>
</g>
<!-- confirm_batch&#45;&gt;return_review -->
<g id="edge17" class="edge">
<title>confirm_batch&#45;&gt;return_review</title>
<path fill="none" stroke="#333333" d="M187.48,-302.49C187.48,-302.49 187.48,-238.95 187.48,-238.95"/>
<polygon fill="#333333" stroke="#333333" points="189.93,-238.95 187.48,-231.95 185.03,-238.95 189.93,-238.95"/>
<text xml:space="preserve" text-anchor="middle" x="181.11" y="-261.22" font-family="Arial" font-size="10.00">No</text>
</g>
<!-- save_batch -->
<g id="node18" class="node">
<title>save_batch</title>
<polygon fill="#cfe5ff" stroke="#1f5f99" stroke-width="1.2" points="372.11,-229.95 273.44,-229.95 273.44,-188.55 372.11,-188.55 372.11,-229.95"/>
<text xml:space="preserve" text-anchor="middle" x="322.78" y="-212.3" font-family="Arial" font-size="11.00">Save Prepared</text>
<text xml:space="preserve" text-anchor="middle" x="322.78" y="-198.8" font-family="Arial" font-size="11.00">URL Batch</text>
</g>
<!-- confirm_batch&#45;&gt;save_batch -->
<g id="edge19" class="edge">
<title>confirm_batch&#45;&gt;save_batch</title>
<path fill="none" stroke="#333333" d="M322.78,-276.42C322.78,-276.42 322.78,-238.94 322.78,-238.94"/>
<polygon fill="#333333" stroke="#333333" points="325.23,-238.94 322.78,-231.94 320.33,-238.94 325.23,-238.94"/>
<text xml:space="preserve" text-anchor="middle" x="314.53" y="-260.18" font-family="Arial" font-size="10.00">Yes</text>
</g>
<!-- return_review&#45;&gt;summary_details -->
<g id="edge18" class="edge">
<title>return_review&#45;&gt;summary_details</title>
<path fill="none" stroke="#333333" d="M160.02,-230.54C160.02,-230.54 160.02,-370.92 160.02,-370.92"/>
<polygon fill="#333333" stroke="#333333" points="157.57,-370.92 160.02,-377.92 162.47,-370.92 157.57,-370.92"/>
</g>
<!-- batch_ready -->
<g id="node19" class="node">
<title>batch_ready</title>
<polygon fill="#cfe5ff" stroke="#1f5f99" stroke-width="1.2" points="388.61,-141.55 256.94,-141.55 256.94,-105.55 388.61,-105.55 388.61,-141.55"/>
<text xml:space="preserve" text-anchor="middle" x="322.78" y="-119.85" font-family="Arial" font-size="11.00">Batch Ready for Scan</text>
</g>
<!-- save_batch&#45;&gt;batch_ready -->
<g id="edge20" class="edge">
<title>save_batch&#45;&gt;batch_ready</title>
<path fill="none" stroke="#333333" d="M322.78,-188.06C322.78,-188.06 322.78,-150.39 322.78,-150.39"/>
<polygon fill="#333333" stroke="#333333" points="325.23,-150.39 322.78,-143.39 320.33,-150.39 325.23,-150.39"/>
</g>
<!-- next_module -->
<g id="node20" class="node">
<title>next_module</title>
<ellipse fill="#b7efb0" stroke="#16833c" stroke-width="1.2" cx="322.78" cy="-29.27" rx="158.87" ry="29.27"/>
<text xml:space="preserve" text-anchor="middle" x="322.78" y="-32.32" font-family="Arial" font-size="11.00">NEXT:</text>
<text xml:space="preserve" text-anchor="middle" x="322.78" y="-18.82" font-family="Arial" font-size="11.00">Batch Scan and Technical URL Validation</text>
</g>
<!-- batch_ready&#45;&gt;next_module -->
<g id="edge21" class="edge">
<title>batch_ready&#45;&gt;next_module</title>
<path fill="none" stroke="#333333" d="M322.78,-105.37C322.78,-105.37 322.78,-67.41 322.78,-67.41"/>
<polygon fill="#333333" stroke="#333333" points="325.23,-67.41 322.78,-60.41 320.33,-67.41 325.23,-67.41"/>
</g>
</g>
</svg>
